:FULLY-SPECIFIED
:FORCE-ALL-JOINTS-BE-3DOF
:DEGREES
577
root 6.98712 16.3896 -3.57417 -166.188 76.5214 -173.173
lfemur -16.8386 -3.51606 -19.4321
ltibia 44.2389 -0 0
lfoot -32.2664 10.7298 -0.0233213
ltoes 7.69727 -0 0
rfemur -52.4769 -12.9988 14.2638
rtibia 48.9949 -0 0
rfoot 10.6825 4.99006 0.0227563
rtoes -29.7032 0 0
lowerback 6.62062 -0.67381 -2.27174
upperback 2.35501 -0.886641 3.39453
thorax -1.18911 -0.421114 4.85995
lowerneck -5.44815 -13.4556 -3.98173
upperneck 10.5381 -18.2317 5.09318
head 4.88961 -8.81058 1.00283
lclavicle 7.22543e-15 -1.99073e-16 -1.09748e-30
lhumerus -39.7471 -17.7935 92.5878
lradius 55.103 -0 0
lwrist 22.9541 0 0
lhand -21.1102 -3.81647 -0.000175103
lfingers 7.12502 -0 0
lthumb 5.26791 26.0983 -0.000149978
rclavicle 7.22543e-15 -1.99073e-16 -1.09748e-30
rhumerus 28.6232 15.3087 -73.7793
rradius 133.923 -0 0
rwrist -45.7915 0 0
rhand -25.757 -21.2866 0.00155224
rfingers 7.12502 -0 0
rthumb 0.780467 -51.2645 0.00150312
578
root 6.92829 16.4031 -3.567 -165.47 77.3723 -172.407
lfemur -16.7121 -3.56145 -19.5111
ltibia 43.8626 -0 0
lfoot -32.1883 11.1349 -0.0230522
ltoes 8.46343 -0 0
rfemur -52.801 -13.3836 14.4321
rtibia 51.2191 -0 0
rfoot 11.5382 5.61379 0.0365794
rtoes -28.3151 0 0
lowerback 6.4184 -0.660816 -2.36026
upperback 2.29942 -0.881871 3.26651
thorax -1.13582 -0.421874 4.77311
lowerneck -5.52505 -13.4213 -3.91216
upperneck 10.773 -18.1994 5.06271
head 4.96457 -8.78526 0.973215
lclavicle 9.28486e-15 4.95774e-15 -1.29235e-30
lhumerus -38.7083 -18.531 91.7367
lradius 54.8725 -0 0
lwrist 23.4106 0 0
lhand -21.0261 -3.48813 4.26292e-05
lfingers 7.12502 -0 0
lthumb 5.34919 26.4247 6.4261e-05
rclavicle 9.28486e-15 4.95774e-15 -1.29235e-30
rhumerus 28.5397 15.2778 -73.7594
rradius 133.931 -0 0
rwrist -45.8242 0 0
rhand -25.6096 -21.0972 0.00208152
rfingers 7.12502 -0 0
rthumb 0.922816 -51.0745 0.00201547
579
root 6.87082 16.4112 -3.55828 -164.722 78.1835 -171.593
lfemur -16.6363 -3.46511 -19.5637
ltibia 43.6151 -0 0
lfoot -32.1575 11.4307 -0.0174855
ltoes 9.07293 -0 0
rfemur -53.0285 -13.7058 14.5186
rtibia 53.4102 -0 0
rfoot 12.4621 6.35763 0.0402528
rtoes -26.897 0 0
lowerback 6.21537 -0.650692 -2.45717
upperback 2.25006 -0.880603 3.13769
thorax -1.07497 -0.424352 4.69032
lowerneck -5.58612 -13.3921 -3.84464
upperneck 11.0127 -18.1757 5.04455
head 5.04026 -8.76351 0.947707
lclavicle 1.17848e-14 9.90446e-15 -1.158e-30
lhumerus -37.6106 -19.2629 90.8836
lradius 54.6145 -0 0
lwrist 23.8757 0 0
lhand -20.9482 -3.16492 0.000316475
lfingers 7.12502 -0 0
lthumb 5.42435 26.7459 0.000327883
rclavicle 1.17848e-14 9.90446e-15 -1.158e-30
rhumerus 28.3894 15.2815 -73.7554
rradius 133.942 -0 0
rwrist -45.824 0 0
rhand -25.4693 -20.8913 0.00216391
rfingers 7.12502 -0 0
rthumb 1.0583 -50.8679 0.00209483
580
root 6.81472 16.4159 -3.54826 -163.891 78.9702 -170.679
lfemur -16.5955 -3.22332 -19.5917
ltibia 43.4619 -0 0
lfoot -32.1494 11.6548 -0.00956019
ltoes 9.48297 -0 0
rfemur -53.1312 -13.9591 14.5614
rtibia 55.424 -0 0
rfoot 13.3237 7.10735 0.031566
rtoes -25.5206 0 0
lowerback 6.01872 -0.646881 -2.57081
upperback 2.20699 -0.887791 3.01398
thorax -1.0096 -0.431024 4.62286
lowerneck -5.63281 -13.3663 -3.78433
upperneck 11.2429 -18.1579 5.04485
head 5.1134 -8.74444 0.929327
lclavicle 1.42421e-14 1.42408e-14 -7.66792e-31
lhumerus -36.4809 -19.9809 90.0569
lradius 54.3534 -0 0
lwrist 24.307 0 0
lhand -20.8695 -2.86587 0.000507231
lfingers 7.12502 -0 0
lthumb 5.50029 27.043 0.000506891
rclavicle 1.42421e-14 1.42408e-14 -7.66792e-31
rhumerus 28.1945 15.3141 -73.7515
rradius 133.953 -0 0
rwrist -45.7925 0 0
rhand -25.3475 -20.6808 0.00175961
rfingers 7.12502 -0 0
rthumb 1.17597 -50.6568 0.00170294
581
root 6.76 16.4188 -3.53714 -162.902 79.7468 -169.596
lfemur -16.5735 -2.83232 -19.5972
ltibia 43.3683 -0 0
lfoot -32.1392 11.8449 -0.00256695
ltoes 9.65077 -0 0
rfemur -53.0816 -14.1369 14.5986
rtibia 57.1161 -0 0
rfoot 13.9924 7.74881 0.0150259
rtoes -24.2579 0 0
lowerback 5.83568 -0.652851 -2.70948
upperback 2.17027 -0.908382 2.90132
thorax -0.942767 -0.444403 4.58202
lowerneck -5.66658 -13.3423 -3.73643
upperneck 11.4494 -18.1439 5.06975
head 5.1807 -8.72714 0.92109
lclavicle 1.61734e-14 1.75664e-14 -2.99255e-31
lhumerus -35.3476 -20.679 89.2863
lradius 54.1136 -0 0
lwrist 24.6619 0 0
lhand -20.7829 -2.61003 0.000453498
lfingers 7.12502 -0 0
lthumb 5.58392 27.2965 0.00044677
rclavicle 1.61734e-14 1.75664e-14 -2.99255e-31
rhumerus 27.9775 15.3697 -73.7318
rradius 133.962 -0 0
rwrist -45.7312 0 0
rhand -25.2554 -20.4776 0.000967759
rfingers 7.12502 -0 0
rthumb 1.26489 -50.4532 0.000936216
582
root 6.70668 16.4219 -3.52517 -161.655 80.5267 -168.243
lfemur -16.5543 -2.28828 -19.5821
ltibia 43.2999 0 0
lfoot -32.1021 12.0386 0
ltoes 9.53351 0 0
rfemur -52.8524 -14.2324 14.669
rtibia 58.3423 0 0
rfoot 14.3379 8.16808 0
rtoes -23.1809 0 0
lowerback 5.67349 -0.672073 -2.8815
upperback 2.13999 -0.947316 2.80564
thorax -0.877532 -0.467035 4.57908
lowerneck -5.68886 -13.3185 -3.70611
upperneck 11.6179 -18.1314 5.12545
head 5.23887 -8.71073 0.926016
lclavicle 1.70955e-14 1.94809e-14 0
lhumerus -34.2402 -21.3527 88.6031
lradius 53.9197 0 0
lwrist 24.8981 0 0
lhand -20.6812 -2.41646 0
lfingers 7.12502 0 0
lthumb 5.68214 27.4874 0
rclavicle 1.70955e-14 1.94809e-14 0
rhumerus 27.7608 15.4426 -73.6802
rradius 133.969 0 0
rwrist -45.6418 0 0
rhand -25.2045 -20.2936 0
rfingers 7.12502 0 0
rthumb 1.3141 -770.269 0
583
root 6.65523 16.4231 -3.51078 -160.182 81.2482 -166.633
lfemur -16.5479 -1.5569 -19.5284
ltibia 43.3075 -0 0
lfoot -32.0502 12.1978 -0.000728397
ltoes 8.99979 -0 0
rfemur -52.3642 -14.2247 14.7266
rtibia 59.1118 -0 0
rfoot 14.3694 8.32692 -0.00438307
rtoes -22.1949 0 0
lowerback 5.53922 -0.707155 -3.09524
upperback 2.12297 -1.0082 2.73296
thorax -0.81019 -0.500967 4.62555
lowerneck -5.68944 -13.3008 -3.69965
upperneck 11.7392 -18.1287 5.22252
head 5.28533 -8.69934 0.948285
lclavicle 1.69882e-14 1.96958e-14 6.83302e-32
lhumerus -33.1158 -22.0161 87.9943
lradius 53.7566 -0 0
lwrist 24.9969 0 0
lhand -20.5706 -2.29189 -0.000559439
lfingers 7.12502 -0 0
lthumb 5.78894 27.6091 -0.000539285
rclavicle 1.69882e-14 1.96958e-14 6.83302e-32
rhumerus 27.521 15.5714 -73.5866
rradius 133.986 -0 0
rwrist -45.4671 0 0
rhand -25.1862 -20.0987 -0.00117506
rfingers 7.12502 -0 0
rthumb 1.33178 -50.0742 -0.00113515
584
root 6.60581 16.4201 -3.49326 -158.566 81.8777 -164.841
lfemur -16.5709 -0.630105 -19.4289
ltibia 43.4388 -0 0
lfoot -32.0097 12.2762 -0.00114206
ltoes 8.04386 -0 0
rfemur -51.6145 -14.1125 14.7225
rtibia 59.5562 -0 0
rfoot 14.2059 8.31386 0.000983441
rtoes -21.2044 0 0
lowerback 5.42889 -0.755924 -3.34608
upperback 2.12145 -1.08779 2.68002
thorax -0.736832 -0.544721 4.7152
lowerneck -5.66363 -13.2926 -3.71449
upperneck 11.8228 -18.1407 5.35897
head 5.32214 -8.69515 0.986592
lclavicle 1.62742e-14 1.84706e-14 3.52515e-32
lhumerus -31.9349 -22.6795 87.4277
lradius 53.5976 -0 0
lwrist 24.9898 0 0
lhand -20.4595 -2.22164 -0.000828817
lfingers 7.12502 -0 0
lthumb 5.89619 27.6764 -0.000786711
rclavicle 1.62742e-14 1.84706e-14 3.52515e-32
rhumerus 27.2303 15.7743 -73.4623
rradius 134.02 -0 0
rwrist -45.1867 0 0
rhand -25.1876 -19.8722 -0.00255427
rfingers 7.12502 -0 0
rthumb 1.33039 -49.8481 -0.00246613
585
root 6.55793 16.4143 -3.47408 -156.708 82.4685 -162.787
lfemur -16.6169 0.456588 -19.3016
ltibia 43.6545 -0 0
lfoot -31.9766 12.2995 -0.00123362
ltoes 6.81137 -0 0
rfemur -50.6926 -13.9187 14.6918
rtibia 59.7141 -0 0
rfoot 13.8818 8.20524 0.0106675
rtoes -20.2801 0 0
lowerback 5.33323 -0.814665 -3.62278
upperback 2.1286 -1.18077 2.6388
thorax -0.660216 -0.59555 4.83273
lowerneck -5.62121 -13.2886 -3.74264
upperneck 11.8828 -18.1599 5.52209
head 5.35299 -8.69436 1.03574
lclavicle 1.51349e-14 1.62275e-14 -3.90459e-32
lhumerus -30.7342 -23.3351 86.9075
lradius 53.4496 -0 0
lwrist 24.9095 0 0
lhand -20.3441 -2.19261 -0.000821259
lfingers 7.12502 -0 0
lthumb 6.00759 27.7024 -0.000763391
rclavicle 1.51349e-14 1.62275e-14 -3.90459e-32
rhumerus 26.9049 16.015 -73.3236
rradius 134.058 -0 0
rwrist -44.8571 0 0
rhand -25.2135 -19.6403 -0.0037671
rfingers 7.12502 -0 0
rthumb 1.30539 -49.6168 -0.00363572
586
root 6.5111 16.4072 -3.45473 -154.43 83.0723 -160.311
lfemur -16.6802 1.66765 -19.1647
ltibia 43.9151 -0 0
lfoot -31.9471 12.2933 -0.00105873
ltoes 5.44802 -0 0
rfemur -49.6873 -13.6672 14.6692
rtibia 59.6242 -0 0
rfoot 13.4314 8.0774 0.0191103
rtoes -19.4926 0 0
lowerback 5.24291 -0.879682 -3.91415
upperback 2.1376 -1.28186 2.6013
thorax -0.583076 -0.650665 4.96285
lowerneck -5.57192 -13.2834 -3.77607
upperneck 11.9331 -18.1789 5.69922
head 5.38157 -8.69318 1.09053
lclavicle 1.37516e-14 1.33884e-14 -9.4997e-32
lhumerus -29.5506 -23.9758 86.4395
lradius 53.3193 -0 0
lwrist 24.789 0 0
lhand -20.2206 -2.19173 -0.00059987
lfingers 7.12502 -0 0
lthumb 6.12685 27.7 -0.000537621
rclavicle 1.37516e-14 1.33884e-14 -9.4997e-32
rhumerus 26.5609 16.2574 -73.1863
rradius 134.087 -0 0
rwrist -44.535 0 0
rhand -25.2685 -19.4292 -0.00441326
rfingers 7.12502 -0 0
rthumb 1.25227 -49.4063 -0.0042582
587
root 6.46485 16.4001 -3.43668 -151.406 83.7369 -157.108
lfemur -16.7558 2.96752 -19.0362
ltibia 44.1813 -0 0
lfoot -31.9172 12.2833 -0.000709482
ltoes 4.09948 -0 0
rfemur -48.6869 -13.3828 14.6881
rtibia 59.3254 -0 0
rfoot 12.8889 8.00676 0.0217544
rtoes -18.9126 0 0
lowerback 5.14854 -0.947333 -4.20895
upperback 2.14167 -1.38577 2.55953
thorax -0.508109 -0.707225 5.09029
lowerneck -5.52555 -13.2717 -3.80677
upperneck 11.9879 -18.1902 5.87766
head 5.41158 -8.6878 1.14577
lclavicle 1.23057e-14 1.03755e-14 -9.87578e-32
lhumerus -28.4222 -24.5954 86.0306
lradius 53.2136 -0 0
lwrist 24.661 0 0
lhand -20.0851 -2.20589 -0.000273218
lfingers 7.12502 -0 0
lthumb 6.25766 27.682 -0.000220367
rclavicle 1.23057e-14 1.03755e-14 -9.87578e-32
rhumerus 26.214 16.4647 -73.0657
rradius 134.092 -0 0
rwrist -44.277 0 0
rhand -25.3573 -19.265 -0.00412688
rfingers 7.12502 -0 0
rthumb 1.1665 -49.2427 -0.00398112
588
root 6.41869 16.3945 -3.42142 -147.019 84.5018 -152.58
lfemur -16.8397 4.32054 -18.9337
ltibia 44.4137 -0 0
lfoot -31.8832 12.295 -0.000305099
ltoes 2.91142 -0 0
rfemur -47.7791 -13.0915 14.7803
rtibia 58.8563 -0 0
rfoot 12.2888 8.06984 0.0157161
rtoes -18.6107 0 0
lowerback 5.04067 -1.01403 -4.49595
upperback 2.13403 -1.48723 2.50555
thorax -0.437971 -0.762336 5.19979
lowerneck -5.49186 -13.2481 -3.82672
upperneck 12.0614 -18.1864 6.04474
head 5.44672 -8.67443 1.19628
lclavicle 1.09786e-14 7.61075e-15 -5.39423e-32
lhumerus -27.3878 -25.1881 85.6891
lradius 53.1394 -0 0
lwrist 24.5583 0 0
lhand -19.9338 -2.22201 4.11904e-07
lfingers 7.12502 -0 0
lthumb 6.40372 27.6614 3.08953e-05
rclavicle 1.09786e-14 7.61075e-15 -5.39423e-32
rhumerus 25.8802 16.6001 -72.9765
rradius 134.062 -0 0
rwrist -44.1398 0 0
rhand -25.4846 -19.1738 -0.00266209
rfingers 7.12502 -0 0
rthumb 1.04357 -49.1519 -0.00256775
